<mxfile host="Electron" agent="Mozilla/5.0 (X11; Linux x86_64) AppleWebKit/537.36 (KHTML, like Gecko) draw.io/28.0.6 Chrome/138.0.7204.100 Electron/37.2.3 Safari/537.36" version="28.0.6">
  <diagram name="Página-1" id="UM8QrNS1cJXv6U8iXkxn">
    <mxGraphModel dx="1853" dy="1801" grid="1" gridSize="10" guides="1" tooltips="1" connect="1" arrows="1" fold="1" page="1" pageScale="1" pageWidth="827" pageHeight="1169" math="0" shadow="0">
      <root>
        <mxCell id="0" />
        <mxCell id="1" parent="0" />
        <mxCell id="LfVI_r5S6F1vF6gZNUYX-1" value="&lt;div&gt;En una red social hay usuarios que publican contenidos y realizan publicaciones. Los usuarios&lt;/div&gt;&lt;div&gt;pueden crear álbumes y agregar a otros usuarios para que participen en los mismos. Cada&lt;/div&gt;&lt;div&gt;usuario que participa en un álbum puede cargar varios contenidos, que pueden ser fotos o&lt;/div&gt;&lt;div&gt;vídeos. De las fotos se conoce la resolución y el formato, mientras que de los videos se conoce&lt;/div&gt;&lt;div&gt;la duración. De todo contenido se guarda un comentario y la fecha de publicación, y también&lt;/div&gt;&lt;div&gt;debe ser posible saber qué usuario lo cargó. Para cada álbum, además de los participantes, es&lt;/div&gt;&lt;div&gt;importante saber quién fue su creador, y también su fecha de creación, nombre y descripción.&lt;/div&gt;&lt;div&gt;Los usuarios también realizan publicaciones. De cada publicación se guarda un texto, fecha de&lt;/div&gt;&lt;div&gt;publicación y, opcionalmente, un contenido que puede ser una foto o un video (a lo sumo uno).&lt;/div&gt;&lt;div&gt;Las publicaciones también contienen etiquetas que facilitan su búsqueda. Muchas&lt;/div&gt;&lt;div&gt;publicaciones pueden tener la misma etiqueta, de la cual se conoce sólo un nombre. De cada&lt;/div&gt;&lt;div&gt;usuario se conoce su nombre de usuario, email y nombre completo.&lt;/div&gt;" style="text;html=1;align=left;verticalAlign=middle;resizable=0;points=[];autosize=1;strokeColor=none;fillColor=none;" parent="1" vertex="1">
          <mxGeometry x="45" y="-220" width="530" height="190" as="geometry" />
        </mxCell>
        <mxCell id="LfVI_r5S6F1vF6gZNUYX-8" style="edgeStyle=orthogonalEdgeStyle;rounded=0;orthogonalLoop=1;jettySize=auto;html=1;exitX=0;exitY=1;exitDx=0;exitDy=0;endArrow=oval;endFill=0;" parent="1" source="LfVI_r5S6F1vF6gZNUYX-2" edge="1">
          <mxGeometry relative="1" as="geometry">
            <mxPoint x="520" y="363" as="targetPoint" />
          </mxGeometry>
        </mxCell>
        <mxCell id="LfVI_r5S6F1vF6gZNUYX-10" style="edgeStyle=orthogonalEdgeStyle;rounded=0;orthogonalLoop=1;jettySize=auto;html=1;exitX=0.25;exitY=1;exitDx=0;exitDy=0;endArrow=oval;endFill=0;entryX=0.526;entryY=-0.035;entryDx=0;entryDy=0;entryPerimeter=0;" parent="1" source="LfVI_r5S6F1vF6gZNUYX-2" target="LfVI_r5S6F1vF6gZNUYX-11" edge="1">
          <mxGeometry relative="1" as="geometry">
            <mxPoint x="565" y="373" as="targetPoint" />
          </mxGeometry>
        </mxCell>
        <mxCell id="LfVI_r5S6F1vF6gZNUYX-2" value="Foto" style="whiteSpace=wrap;html=1;align=center;" parent="1" vertex="1">
          <mxGeometry x="540" y="313" width="100" height="40" as="geometry" />
        </mxCell>
        <mxCell id="LfVI_r5S6F1vF6gZNUYX-14" style="edgeStyle=orthogonalEdgeStyle;rounded=0;orthogonalLoop=1;jettySize=auto;html=1;exitX=1;exitY=1;exitDx=0;exitDy=0;endArrow=oval;endFill=0;" parent="1" source="LfVI_r5S6F1vF6gZNUYX-3" edge="1">
          <mxGeometry relative="1" as="geometry">
            <mxPoint x="797" y="362" as="targetPoint" />
          </mxGeometry>
        </mxCell>
        <mxCell id="LfVI_r5S6F1vF6gZNUYX-3" value="Video" style="whiteSpace=wrap;html=1;align=center;" parent="1" vertex="1">
          <mxGeometry x="667" y="302" width="100" height="40" as="geometry" />
        </mxCell>
        <mxCell id="LfVI_r5S6F1vF6gZNUYX-16" style="edgeStyle=orthogonalEdgeStyle;rounded=0;orthogonalLoop=1;jettySize=auto;html=1;exitX=1;exitY=0.5;exitDx=0;exitDy=0;endArrow=oval;endFill=1;" parent="1" source="LfVI_r5S6F1vF6gZNUYX-4" edge="1">
          <mxGeometry relative="1" as="geometry">
            <mxPoint x="750" y="170" as="targetPoint" />
          </mxGeometry>
        </mxCell>
        <mxCell id="LfVI_r5S6F1vF6gZNUYX-18" style="edgeStyle=orthogonalEdgeStyle;rounded=0;orthogonalLoop=1;jettySize=auto;html=1;exitX=1;exitY=0;exitDx=0;exitDy=0;endArrow=oval;endFill=0;" parent="1" source="LfVI_r5S6F1vF6gZNUYX-4" edge="1">
          <mxGeometry relative="1" as="geometry">
            <mxPoint x="760" y="150" as="targetPoint" />
          </mxGeometry>
        </mxCell>
        <mxCell id="LfVI_r5S6F1vF6gZNUYX-20" style="edgeStyle=orthogonalEdgeStyle;rounded=0;orthogonalLoop=1;jettySize=auto;html=1;exitX=0.629;exitY=-0.025;exitDx=0;exitDy=0;endArrow=oval;endFill=0;entryX=0.46;entryY=1.013;entryDx=0;entryDy=0;entryPerimeter=0;exitPerimeter=0;" parent="1" source="LfVI_r5S6F1vF6gZNUYX-4" target="LfVI_r5S6F1vF6gZNUYX-21" edge="1">
          <mxGeometry relative="1" as="geometry">
            <mxPoint x="730" y="210" as="targetPoint" />
          </mxGeometry>
        </mxCell>
        <mxCell id="LfVI_r5S6F1vF6gZNUYX-4" value="Conenido&lt;div&gt;&lt;br&gt;&lt;/div&gt;" style="whiteSpace=wrap;html=1;align=center;" parent="1" vertex="1">
          <mxGeometry x="610" y="150" width="120" height="40" as="geometry" />
        </mxCell>
        <mxCell id="LfVI_r5S6F1vF6gZNUYX-52" style="edgeStyle=orthogonalEdgeStyle;rounded=0;orthogonalLoop=1;jettySize=auto;html=1;exitX=1;exitY=0.25;exitDx=0;exitDy=0;endArrow=oval;endFill=1;" parent="1" source="LfVI_r5S6F1vF6gZNUYX-5" edge="1">
          <mxGeometry relative="1" as="geometry">
            <mxPoint x="455" y="170.26333333333335" as="targetPoint" />
          </mxGeometry>
        </mxCell>
        <mxCell id="LfVI_r5S6F1vF6gZNUYX-55" style="edgeStyle=orthogonalEdgeStyle;rounded=0;orthogonalLoop=1;jettySize=auto;html=1;exitX=0.863;exitY=1.011;exitDx=0;exitDy=0;endArrow=oval;endFill=0;exitPerimeter=0;" parent="1" source="LfVI_r5S6F1vF6gZNUYX-5" edge="1">
          <mxGeometry relative="1" as="geometry">
            <mxPoint x="410" y="230" as="targetPoint" />
          </mxGeometry>
        </mxCell>
        <mxCell id="LfVI_r5S6F1vF6gZNUYX-59" style="edgeStyle=orthogonalEdgeStyle;rounded=0;orthogonalLoop=1;jettySize=auto;html=1;exitX=0.75;exitY=0;exitDx=0;exitDy=0;endArrow=oval;endFill=0;entryX=0.578;entryY=1.039;entryDx=0;entryDy=0;entryPerimeter=0;" parent="1" source="LfVI_r5S6F1vF6gZNUYX-5" target="LfVI_r5S6F1vF6gZNUYX-60" edge="1">
          <mxGeometry relative="1" as="geometry">
            <mxPoint x="385" y="130.43" as="targetPoint" />
          </mxGeometry>
        </mxCell>
        <mxCell id="LfVI_r5S6F1vF6gZNUYX-61" style="edgeStyle=orthogonalEdgeStyle;rounded=0;orthogonalLoop=1;jettySize=auto;html=1;exitX=0.25;exitY=0;exitDx=0;exitDy=0;endArrow=oval;endFill=0;entryX=0.607;entryY=1.039;entryDx=0;entryDy=0;entryPerimeter=0;" parent="1" source="LfVI_r5S6F1vF6gZNUYX-5" target="LfVI_r5S6F1vF6gZNUYX-62" edge="1">
          <mxGeometry relative="1" as="geometry">
            <mxPoint x="334.9999999999999" y="130.43" as="targetPoint" />
          </mxGeometry>
        </mxCell>
        <mxCell id="LfVI_r5S6F1vF6gZNUYX-5" value="Album" style="whiteSpace=wrap;html=1;align=center;" parent="1" vertex="1">
          <mxGeometry x="315" y="157.34999999999997" width="100" height="40" as="geometry" />
        </mxCell>
        <mxCell id="LfVI_r5S6F1vF6gZNUYX-9" value="resolucion" style="text;html=1;align=center;verticalAlign=middle;resizable=0;points=[];autosize=1;strokeColor=none;fillColor=none;fontSize=10;" parent="1" vertex="1">
          <mxGeometry x="470" y="368" width="70" height="30" as="geometry" />
        </mxCell>
        <mxCell id="LfVI_r5S6F1vF6gZNUYX-11" value="formato" style="text;html=1;align=center;verticalAlign=middle;resizable=0;points=[];autosize=1;strokeColor=none;fillColor=none;fontSize=10;" parent="1" vertex="1">
          <mxGeometry x="540" y="378" width="60" height="30" as="geometry" />
        </mxCell>
        <mxCell id="LfVI_r5S6F1vF6gZNUYX-15" value="duracion" style="text;html=1;align=center;verticalAlign=middle;resizable=0;points=[];autosize=1;strokeColor=none;fillColor=none;fontSize=10;" parent="1" vertex="1">
          <mxGeometry x="767" y="362" width="60" height="30" as="geometry" />
        </mxCell>
        <mxCell id="LfVI_r5S6F1vF6gZNUYX-17" value="#contenido" style="text;html=1;align=center;verticalAlign=middle;resizable=0;points=[];autosize=1;strokeColor=none;fillColor=none;fontSize=10;" parent="1" vertex="1">
          <mxGeometry x="750" y="155" width="70" height="30" as="geometry" />
        </mxCell>
        <mxCell id="LfVI_r5S6F1vF6gZNUYX-19" value="comentario" style="text;html=1;align=center;verticalAlign=middle;resizable=0;points=[];autosize=1;strokeColor=none;fillColor=none;fontSize=10;" parent="1" vertex="1">
          <mxGeometry x="757" y="128.43" width="70" height="30" as="geometry" />
        </mxCell>
        <mxCell id="LfVI_r5S6F1vF6gZNUYX-21" value="fecha_publicacion" style="text;html=1;align=center;verticalAlign=middle;resizable=0;points=[];autosize=1;strokeColor=none;fillColor=none;fontSize=10;" parent="1" vertex="1">
          <mxGeometry x="680" y="98.43" width="100" height="30" as="geometry" />
        </mxCell>
        <mxCell id="LfVI_r5S6F1vF6gZNUYX-31" style="edgeStyle=orthogonalEdgeStyle;rounded=0;orthogonalLoop=1;jettySize=auto;html=1;exitX=0;exitY=0.25;exitDx=0;exitDy=0;endArrow=oval;endFill=0;entryX=0.772;entryY=1;entryDx=0;entryDy=0;entryPerimeter=0;" parent="1" source="LfVI_r5S6F1vF6gZNUYX-27" target="LfVI_r5S6F1vF6gZNUYX-32" edge="1">
          <mxGeometry relative="1" as="geometry">
            <mxPoint x="50" y="340" as="targetPoint" />
          </mxGeometry>
        </mxCell>
        <mxCell id="LfVI_r5S6F1vF6gZNUYX-33" style="edgeStyle=orthogonalEdgeStyle;rounded=0;orthogonalLoop=1;jettySize=auto;html=1;exitX=0;exitY=0;exitDx=0;exitDy=0;endArrow=oval;endFill=0;entryX=0.705;entryY=1.033;entryDx=0;entryDy=0;entryPerimeter=0;" parent="1" source="LfVI_r5S6F1vF6gZNUYX-27" target="LfVI_r5S6F1vF6gZNUYX-34" edge="1">
          <mxGeometry relative="1" as="geometry">
            <mxPoint x="70.19999999999999" y="310" as="targetPoint" />
          </mxGeometry>
        </mxCell>
        <mxCell id="LfVI_r5S6F1vF6gZNUYX-79" style="edgeStyle=orthogonalEdgeStyle;rounded=0;orthogonalLoop=1;jettySize=auto;html=1;endArrow=none;endFill=0;entryX=0;entryY=0.5;entryDx=0;entryDy=0;exitX=1.01;exitY=0.978;exitDx=0;exitDy=0;exitPerimeter=0;" parent="1" source="g68JzVaNpoJwYkY7t_2r-1" target="LfVI_r5S6F1vF6gZNUYX-78" edge="1">
          <mxGeometry relative="1" as="geometry">
            <mxPoint x="330" y="460" as="sourcePoint" />
          </mxGeometry>
        </mxCell>
        <mxCell id="LfVI_r5S6F1vF6gZNUYX-83" value="(1,1)" style="edgeLabel;html=1;align=center;verticalAlign=middle;resizable=0;points=[];" parent="LfVI_r5S6F1vF6gZNUYX-79" vertex="1" connectable="0">
          <mxGeometry x="-0.1949" y="-5" relative="1" as="geometry">
            <mxPoint as="offset" />
          </mxGeometry>
        </mxCell>
        <mxCell id="waa-Rt8cGS3HyiVynu9V-1" style="edgeStyle=orthogonalEdgeStyle;rounded=0;orthogonalLoop=1;jettySize=auto;html=1;exitX=0.75;exitY=1;exitDx=0;exitDy=0;endArrow=oval;endFill=1;" parent="1" source="LfVI_r5S6F1vF6gZNUYX-27" edge="1">
          <mxGeometry relative="1" as="geometry">
            <mxPoint x="140" y="430" as="targetPoint" />
          </mxGeometry>
        </mxCell>
        <mxCell id="LfVI_r5S6F1vF6gZNUYX-27" value="Usuario" style="whiteSpace=wrap;html=1;align=center;" parent="1" vertex="1">
          <mxGeometry x="70" y="368" width="100" height="40" as="geometry" />
        </mxCell>
        <mxCell id="LfVI_r5S6F1vF6gZNUYX-32" value="email" style="text;html=1;align=center;verticalAlign=middle;resizable=0;points=[];autosize=1;strokeColor=none;fillColor=none;fontSize=10;" parent="1" vertex="1">
          <mxGeometry y="345" width="50" height="30" as="geometry" />
        </mxCell>
        <mxCell id="LfVI_r5S6F1vF6gZNUYX-34" value="nombre_completo" style="text;html=1;align=center;verticalAlign=middle;resizable=0;points=[];autosize=1;strokeColor=none;fillColor=none;fontSize=9;" parent="1" vertex="1">
          <mxGeometry x="40" y="315" width="100" height="20" as="geometry" />
        </mxCell>
        <mxCell id="LfVI_r5S6F1vF6gZNUYX-35" value="crea" style="shape=rhombus;perimeter=rhombusPerimeter;whiteSpace=wrap;html=1;align=center;" parent="1" vertex="1">
          <mxGeometry x="430" y="314" width="80" height="48" as="geometry" />
        </mxCell>
        <mxCell id="LfVI_r5S6F1vF6gZNUYX-38" style="edgeStyle=orthogonalEdgeStyle;rounded=0;orthogonalLoop=1;jettySize=auto;html=1;exitX=0.5;exitY=0;exitDx=0;exitDy=0;entryX=0.179;entryY=0.971;entryDx=0;entryDy=0;endArrow=none;endFill=0;entryPerimeter=0;" parent="1" source="LfVI_r5S6F1vF6gZNUYX-35" target="LfVI_r5S6F1vF6gZNUYX-5" edge="1">
          <mxGeometry relative="1" as="geometry" />
        </mxCell>
        <mxCell id="LfVI_r5S6F1vF6gZNUYX-41" value="(0,N)" style="edgeLabel;html=1;align=center;verticalAlign=middle;resizable=0;points=[];" parent="LfVI_r5S6F1vF6gZNUYX-38" vertex="1" connectable="0">
          <mxGeometry x="0.2745" y="1" relative="1" as="geometry">
            <mxPoint as="offset" />
          </mxGeometry>
        </mxCell>
        <mxCell id="LfVI_r5S6F1vF6gZNUYX-39" style="edgeStyle=orthogonalEdgeStyle;rounded=0;orthogonalLoop=1;jettySize=auto;html=1;exitX=0;exitY=0.5;exitDx=0;exitDy=0;entryX=1.01;entryY=0.558;entryDx=0;entryDy=0;entryPerimeter=0;endArrow=none;endFill=0;" parent="1" source="LfVI_r5S6F1vF6gZNUYX-35" target="LfVI_r5S6F1vF6gZNUYX-27" edge="1">
          <mxGeometry relative="1" as="geometry" />
        </mxCell>
        <mxCell id="LfVI_r5S6F1vF6gZNUYX-40" value="(1,1)" style="edgeLabel;html=1;align=center;verticalAlign=middle;resizable=0;points=[];" parent="LfVI_r5S6F1vF6gZNUYX-39" vertex="1" connectable="0">
          <mxGeometry x="0.1503" y="-1" relative="1" as="geometry">
            <mxPoint as="offset" />
          </mxGeometry>
        </mxCell>
        <mxCell id="LfVI_r5S6F1vF6gZNUYX-44" style="edgeStyle=orthogonalEdgeStyle;rounded=0;orthogonalLoop=1;jettySize=auto;html=1;exitX=0;exitY=0.5;exitDx=0;exitDy=0;entryX=0.75;entryY=0;entryDx=0;entryDy=0;endArrow=none;endFill=0;" parent="1" source="LfVI_r5S6F1vF6gZNUYX-42" target="LfVI_r5S6F1vF6gZNUYX-27" edge="1">
          <mxGeometry relative="1" as="geometry" />
        </mxCell>
        <mxCell id="LfVI_r5S6F1vF6gZNUYX-45" value="(0,N)" style="edgeLabel;html=1;align=center;verticalAlign=middle;resizable=0;points=[];" parent="LfVI_r5S6F1vF6gZNUYX-44" vertex="1" connectable="0">
          <mxGeometry x="-0.4614" y="-2" relative="1" as="geometry">
            <mxPoint as="offset" />
          </mxGeometry>
        </mxCell>
        <mxCell id="LfVI_r5S6F1vF6gZNUYX-42" value="participa" style="shape=rhombus;perimeter=rhombusPerimeter;whiteSpace=wrap;html=1;align=center;" parent="1" vertex="1">
          <mxGeometry x="170" y="157.35" width="80" height="45" as="geometry" />
        </mxCell>
        <mxCell id="LfVI_r5S6F1vF6gZNUYX-43" style="edgeStyle=orthogonalEdgeStyle;rounded=0;orthogonalLoop=1;jettySize=auto;html=1;exitX=1;exitY=0.5;exitDx=0;exitDy=0;entryX=0;entryY=0.5;entryDx=0;entryDy=0;endArrow=none;endFill=0;" parent="1" source="LfVI_r5S6F1vF6gZNUYX-42" target="LfVI_r5S6F1vF6gZNUYX-5" edge="1">
          <mxGeometry relative="1" as="geometry" />
        </mxCell>
        <mxCell id="LfVI_r5S6F1vF6gZNUYX-46" value="(0,N)" style="edgeLabel;html=1;align=center;verticalAlign=middle;resizable=0;points=[];" parent="LfVI_r5S6F1vF6gZNUYX-43" vertex="1" connectable="0">
          <mxGeometry x="0.0715" y="1" relative="1" as="geometry">
            <mxPoint as="offset" />
          </mxGeometry>
        </mxCell>
        <mxCell id="LfVI_r5S6F1vF6gZNUYX-49" style="edgeStyle=orthogonalEdgeStyle;rounded=0;orthogonalLoop=1;jettySize=auto;html=1;exitX=0;exitY=0.5;exitDx=0;exitDy=0;endArrow=none;endFill=0;" parent="1" source="LfVI_r5S6F1vF6gZNUYX-47" edge="1">
          <mxGeometry relative="1" as="geometry">
            <mxPoint x="389.9999999999998" y="223.07999999999998" as="sourcePoint" />
            <mxPoint x="420" y="190" as="targetPoint" />
            <Array as="points">
              <mxPoint x="461" y="210" />
              <mxPoint x="461" y="190" />
            </Array>
          </mxGeometry>
        </mxCell>
        <mxCell id="LfVI_r5S6F1vF6gZNUYX-51" value="(1,1)" style="edgeLabel;html=1;align=center;verticalAlign=middle;resizable=0;points=[];" parent="LfVI_r5S6F1vF6gZNUYX-49" vertex="1" connectable="0">
          <mxGeometry x="0.2889" y="-1" relative="1" as="geometry">
            <mxPoint as="offset" />
          </mxGeometry>
        </mxCell>
        <mxCell id="LfVI_r5S6F1vF6gZNUYX-47" value="contiene" style="shape=rhombus;perimeter=rhombusPerimeter;whiteSpace=wrap;html=1;align=center;" parent="1" vertex="1">
          <mxGeometry x="500" y="190" width="80" height="40" as="geometry" />
        </mxCell>
        <mxCell id="LfVI_r5S6F1vF6gZNUYX-53" value="#album" style="text;html=1;align=center;verticalAlign=middle;resizable=0;points=[];autosize=1;strokeColor=none;fillColor=none;fontSize=10;" parent="1" vertex="1">
          <mxGeometry x="460" y="137.35" width="60" height="30" as="geometry" />
        </mxCell>
        <mxCell id="LfVI_r5S6F1vF6gZNUYX-60" value="nombre" style="text;html=1;align=center;verticalAlign=middle;resizable=0;points=[];autosize=1;strokeColor=none;fillColor=none;fontSize=10;" parent="1" vertex="1">
          <mxGeometry x="345" y="98.42999999999999" width="60" height="30" as="geometry" />
        </mxCell>
        <mxCell id="LfVI_r5S6F1vF6gZNUYX-62" value="fecha_creacion" style="text;html=1;align=center;verticalAlign=middle;resizable=0;points=[];autosize=1;strokeColor=none;fillColor=none;fontSize=10;" parent="1" vertex="1">
          <mxGeometry x="265" y="98.42999999999999" width="90" height="30" as="geometry" />
        </mxCell>
        <mxCell id="LfVI_r5S6F1vF6gZNUYX-68" value="&lt;span style=&quot;color: rgb(255, 255, 255); font-family: Helvetica; font-size: 10px; font-style: normal; font-variant-ligatures: normal; font-variant-caps: normal; font-weight: 400; letter-spacing: normal; orphans: 2; text-align: center; text-indent: 0px; text-transform: none; widows: 2; word-spacing: 0px; -webkit-text-stroke-width: 0px; white-space: nowrap; background-color: rgb(27, 29, 30); text-decoration-thickness: initial; text-decoration-style: initial; text-decoration-color: initial; display: inline !important; float: none;&quot;&gt;nombre_usuario&lt;/span&gt;" style="text;whiteSpace=wrap;html=1;" parent="1" vertex="1">
          <mxGeometry x="90" y="430" width="80" height="22" as="geometry" />
        </mxCell>
        <mxCell id="LfVI_r5S6F1vF6gZNUYX-69" style="edgeStyle=orthogonalEdgeStyle;rounded=0;orthogonalLoop=1;jettySize=auto;html=1;exitX=-0.001;exitY=0.956;exitDx=0;exitDy=0;endArrow=oval;endFill=1;exitPerimeter=0;" parent="1" edge="1">
          <mxGeometry relative="1" as="geometry">
            <mxPoint x="-717" y="413.76" as="targetPoint" />
            <mxPoint x="-667.1" y="400" as="sourcePoint" />
            <Array as="points">
              <mxPoint x="-667.1" y="415" />
              <mxPoint x="-717.1" y="415" />
            </Array>
          </mxGeometry>
        </mxCell>
        <mxCell id="LfVI_r5S6F1vF6gZNUYX-72" style="edgeStyle=orthogonalEdgeStyle;rounded=0;orthogonalLoop=1;jettySize=auto;html=1;exitX=0.5;exitY=0;exitDx=0;exitDy=0;entryX=0.335;entryY=1;entryDx=0;entryDy=0;entryPerimeter=0;endArrow=none;endFill=0;" parent="1" source="LfVI_r5S6F1vF6gZNUYX-2" target="LfVI_r5S6F1vF6gZNUYX-4" edge="1">
          <mxGeometry relative="1" as="geometry">
            <mxPoint x="570" y="315" as="sourcePoint" />
          </mxGeometry>
        </mxCell>
        <mxCell id="LfVI_r5S6F1vF6gZNUYX-78" value="sube" style="shape=rhombus;perimeter=rhombusPerimeter;whiteSpace=wrap;html=1;align=center;" parent="1" vertex="1">
          <mxGeometry x="845" y="408" width="80" height="40" as="geometry" />
        </mxCell>
        <mxCell id="LfVI_r5S6F1vF6gZNUYX-80" style="edgeStyle=orthogonalEdgeStyle;rounded=0;orthogonalLoop=1;jettySize=auto;html=1;exitX=0.5;exitY=0;exitDx=0;exitDy=0;entryX=1;entryY=0.75;entryDx=0;entryDy=0;endArrow=none;endFill=0;" parent="1" source="LfVI_r5S6F1vF6gZNUYX-78" target="LfVI_r5S6F1vF6gZNUYX-4" edge="1">
          <mxGeometry relative="1" as="geometry">
            <mxPoint x="294.5999999999999" y="265.73" as="targetPoint" />
            <Array as="points">
              <mxPoint x="880" y="188" />
              <mxPoint x="730" y="188" />
            </Array>
          </mxGeometry>
        </mxCell>
        <mxCell id="LfVI_r5S6F1vF6gZNUYX-82" value="(0,N)" style="edgeLabel;html=1;align=center;verticalAlign=middle;resizable=0;points=[];" parent="LfVI_r5S6F1vF6gZNUYX-80" vertex="1" connectable="0">
          <mxGeometry x="0.5078" y="1" relative="1" as="geometry">
            <mxPoint as="offset" />
          </mxGeometry>
        </mxCell>
        <mxCell id="LfVI_r5S6F1vF6gZNUYX-85" style="edgeStyle=orthogonalEdgeStyle;rounded=0;orthogonalLoop=1;jettySize=auto;html=1;entryX=0.597;entryY=0.053;entryDx=0;entryDy=0;entryPerimeter=0;endArrow=none;endFill=0;exitX=0.5;exitY=1;exitDx=0;exitDy=0;" parent="1" source="LfVI_r5S6F1vF6gZNUYX-4" target="LfVI_r5S6F1vF6gZNUYX-3" edge="1">
          <mxGeometry relative="1" as="geometry">
            <mxPoint x="750" y="300" as="sourcePoint" />
          </mxGeometry>
        </mxCell>
        <mxCell id="LfVI_r5S6F1vF6gZNUYX-101" style="edgeStyle=orthogonalEdgeStyle;rounded=0;orthogonalLoop=1;jettySize=auto;html=1;exitX=0.88;exitY=0.004;exitDx=0;exitDy=0;endArrow=oval;endFill=1;entryX=0.626;entryY=0.975;entryDx=0;entryDy=0;entryPerimeter=0;exitPerimeter=0;" parent="1" source="LfVI_r5S6F1vF6gZNUYX-89" target="LfVI_r5S6F1vF6gZNUYX-102" edge="1">
          <mxGeometry relative="1" as="geometry">
            <mxPoint x="650.217391304348" y="-169.47000000000003" as="targetPoint" />
          </mxGeometry>
        </mxCell>
        <mxCell id="LfVI_r5S6F1vF6gZNUYX-103" style="edgeStyle=orthogonalEdgeStyle;rounded=0;orthogonalLoop=1;jettySize=auto;html=1;exitX=1;exitY=0.75;exitDx=0;exitDy=0;endArrow=oval;endFill=0;entryX=0.05;entryY=0.751;entryDx=0;entryDy=0;entryPerimeter=0;" parent="1" source="LfVI_r5S6F1vF6gZNUYX-89" target="LfVI_r5S6F1vF6gZNUYX-111" edge="1">
          <mxGeometry relative="1" as="geometry">
            <mxPoint x="663.98" y="-76.17000000000007" as="targetPoint" />
          </mxGeometry>
        </mxCell>
        <mxCell id="LfVI_r5S6F1vF6gZNUYX-105" style="edgeStyle=orthogonalEdgeStyle;rounded=0;orthogonalLoop=1;jettySize=auto;html=1;exitX=1;exitY=0.25;exitDx=0;exitDy=0;endArrow=oval;endFill=0;entryX=0.434;entryY=0.926;entryDx=0;entryDy=0;entryPerimeter=0;" parent="1" source="LfVI_r5S6F1vF6gZNUYX-89" target="LfVI_r5S6F1vF6gZNUYX-106" edge="1">
          <mxGeometry relative="1" as="geometry">
            <mxPoint x="650.217391304348" y="-79.47000000000003" as="targetPoint" />
          </mxGeometry>
        </mxCell>
        <mxCell id="LfVI_r5S6F1vF6gZNUYX-89" value="Publicacion" style="whiteSpace=wrap;html=1;align=center;" parent="1" vertex="1">
          <mxGeometry x="680" y="-115.00000000000003" width="100" height="40" as="geometry" />
        </mxCell>
        <mxCell id="LfVI_r5S6F1vF6gZNUYX-93" style="edgeStyle=orthogonalEdgeStyle;rounded=0;orthogonalLoop=1;jettySize=auto;html=1;exitX=1;exitY=0.5;exitDx=0;exitDy=0;entryX=0;entryY=0;entryDx=0;entryDy=0;endArrow=none;endFill=0;" parent="1" source="LfVI_r5S6F1vF6gZNUYX-91" target="LfVI_r5S6F1vF6gZNUYX-89" edge="1">
          <mxGeometry relative="1" as="geometry" />
        </mxCell>
        <mxCell id="LfVI_r5S6F1vF6gZNUYX-95" value="(0,N)" style="edgeLabel;html=1;align=center;verticalAlign=middle;resizable=0;points=[];" parent="LfVI_r5S6F1vF6gZNUYX-93" vertex="1" connectable="0">
          <mxGeometry x="0.103" y="2" relative="1" as="geometry">
            <mxPoint as="offset" />
          </mxGeometry>
        </mxCell>
        <mxCell id="LfVI_r5S6F1vF6gZNUYX-91" value="almacena" style="shape=rhombus;perimeter=rhombusPerimeter;whiteSpace=wrap;html=1;align=center;" parent="1" vertex="1">
          <mxGeometry x="447.5" width="85" height="45" as="geometry" />
        </mxCell>
        <mxCell id="LfVI_r5S6F1vF6gZNUYX-92" style="edgeStyle=orthogonalEdgeStyle;rounded=0;orthogonalLoop=1;jettySize=auto;html=1;exitX=0;exitY=0.5;exitDx=0;exitDy=0;entryX=0.44;entryY=-0.05;entryDx=0;entryDy=0;entryPerimeter=0;endArrow=none;endFill=0;" parent="1" source="LfVI_r5S6F1vF6gZNUYX-91" target="LfVI_r5S6F1vF6gZNUYX-27" edge="1">
          <mxGeometry relative="1" as="geometry" />
        </mxCell>
        <mxCell id="LfVI_r5S6F1vF6gZNUYX-94" value="(1,1)" style="edgeLabel;html=1;align=center;verticalAlign=middle;resizable=0;points=[];" parent="LfVI_r5S6F1vF6gZNUYX-92" vertex="1" connectable="0">
          <mxGeometry x="0.0491" y="2" relative="1" as="geometry">
            <mxPoint as="offset" />
          </mxGeometry>
        </mxCell>
        <mxCell id="LfVI_r5S6F1vF6gZNUYX-96" value="" style="edgeStyle=orthogonalEdgeStyle;rounded=0;orthogonalLoop=1;jettySize=auto;html=1;exitX=1;exitY=0.5;exitDx=0;exitDy=0;entryX=0;entryY=1;entryDx=0;entryDy=0;endArrow=none;endFill=0;" parent="1" source="LfVI_r5S6F1vF6gZNUYX-47" target="LfVI_r5S6F1vF6gZNUYX-4" edge="1">
          <mxGeometry relative="1" as="geometry">
            <mxPoint x="580" y="210" as="sourcePoint" />
            <mxPoint x="632" y="190" as="targetPoint" />
          </mxGeometry>
        </mxCell>
        <mxCell id="LfVI_r5S6F1vF6gZNUYX-100" value="(0,N)" style="text;html=1;align=center;verticalAlign=middle;resizable=0;points=[];autosize=1;strokeColor=none;fillColor=none;" parent="1" vertex="1">
          <mxGeometry x="575" y="188" width="50" height="30" as="geometry" />
        </mxCell>
        <mxCell id="LfVI_r5S6F1vF6gZNUYX-102" value="#publicacion" style="text;html=1;align=center;verticalAlign=middle;resizable=0;points=[];autosize=1;strokeColor=none;fillColor=none;fontSize=10;" parent="1" vertex="1">
          <mxGeometry x="720" y="-180.00000000000003" width="80" height="30" as="geometry" />
        </mxCell>
        <mxCell id="LfVI_r5S6F1vF6gZNUYX-106" value="texto" style="text;html=1;align=center;verticalAlign=middle;resizable=0;points=[];autosize=1;strokeColor=none;fillColor=none;fontSize=10;" parent="1" vertex="1">
          <mxGeometry x="780" y="-150.00000000000003" width="50" height="30" as="geometry" />
        </mxCell>
        <mxCell id="LfVI_r5S6F1vF6gZNUYX-108" value="tiene" style="shape=rhombus;perimeter=rhombusPerimeter;whiteSpace=wrap;html=1;align=center;" parent="1" vertex="1">
          <mxGeometry x="625" width="90" height="38" as="geometry" />
        </mxCell>
        <mxCell id="LfVI_r5S6F1vF6gZNUYX-109" value="(G)" style="text;html=1;align=center;verticalAlign=middle;resizable=0;points=[];autosize=1;strokeColor=none;fillColor=none;" parent="1" vertex="1">
          <mxGeometry x="640" y="208" width="40" height="30" as="geometry" />
        </mxCell>
        <mxCell id="LfVI_r5S6F1vF6gZNUYX-110" value="descripcion" style="text;html=1;align=center;verticalAlign=middle;resizable=0;points=[];autosize=1;strokeColor=none;fillColor=none;" parent="1" vertex="1">
          <mxGeometry x="370" y="228" width="80" height="30" as="geometry" />
        </mxCell>
        <mxCell id="LfVI_r5S6F1vF6gZNUYX-111" value="&lt;span style=&quot;font-size: 10px;&quot;&gt;fecha_creacion&lt;/span&gt;" style="text;html=1;align=center;verticalAlign=middle;resizable=0;points=[];autosize=1;strokeColor=none;fillColor=none;" parent="1" vertex="1">
          <mxGeometry x="800" y="-90" width="90" height="30" as="geometry" />
        </mxCell>
        <mxCell id="LfVI_r5S6F1vF6gZNUYX-113" style="edgeStyle=orthogonalEdgeStyle;rounded=0;orthogonalLoop=1;jettySize=auto;html=1;exitX=1;exitY=0.5;exitDx=0;exitDy=0;entryX=0.438;entryY=0.951;entryDx=0;entryDy=0;entryPerimeter=0;endArrow=none;endFill=0;" parent="1" source="LfVI_r5S6F1vF6gZNUYX-108" target="LfVI_r5S6F1vF6gZNUYX-89" edge="1">
          <mxGeometry relative="1" as="geometry" />
        </mxCell>
        <mxCell id="LfVI_r5S6F1vF6gZNUYX-115" value="(0,N)" style="edgeLabel;html=1;align=center;verticalAlign=middle;resizable=0;points=[];" parent="LfVI_r5S6F1vF6gZNUYX-113" vertex="1" connectable="0">
          <mxGeometry x="0.4386" y="2" relative="1" as="geometry">
            <mxPoint as="offset" />
          </mxGeometry>
        </mxCell>
        <mxCell id="LfVI_r5S6F1vF6gZNUYX-114" style="edgeStyle=orthogonalEdgeStyle;rounded=0;orthogonalLoop=1;jettySize=auto;html=1;exitX=0.5;exitY=1;exitDx=0;exitDy=0;entryX=0.164;entryY=0.116;entryDx=0;entryDy=0;entryPerimeter=0;endArrow=none;endFill=0;" parent="1" source="LfVI_r5S6F1vF6gZNUYX-108" target="LfVI_r5S6F1vF6gZNUYX-4" edge="1">
          <mxGeometry relative="1" as="geometry" />
        </mxCell>
        <mxCell id="LfVI_r5S6F1vF6gZNUYX-116" value="(0,1)" style="edgeLabel;html=1;align=center;verticalAlign=middle;resizable=0;points=[];" parent="LfVI_r5S6F1vF6gZNUYX-114" vertex="1" connectable="0">
          <mxGeometry x="0.2512" y="-1" relative="1" as="geometry">
            <mxPoint as="offset" />
          </mxGeometry>
        </mxCell>
        <mxCell id="LfVI_r5S6F1vF6gZNUYX-118" style="edgeStyle=orthogonalEdgeStyle;rounded=0;orthogonalLoop=1;jettySize=auto;html=1;exitX=1;exitY=0.5;exitDx=0;exitDy=0;endArrow=oval;endFill=1;" parent="1" source="LfVI_r5S6F1vF6gZNUYX-117" edge="1">
          <mxGeometry relative="1" as="geometry">
            <mxPoint x="970" y="50.42105263157896" as="targetPoint" />
          </mxGeometry>
        </mxCell>
        <mxCell id="LfVI_r5S6F1vF6gZNUYX-117" value="Etiqueta" style="whiteSpace=wrap;html=1;align=center;" parent="1" vertex="1">
          <mxGeometry x="860" y="30" width="100" height="40" as="geometry" />
        </mxCell>
        <mxCell id="LfVI_r5S6F1vF6gZNUYX-119" value="nombre" style="text;html=1;align=center;verticalAlign=middle;resizable=0;points=[];autosize=1;strokeColor=none;fillColor=none;" parent="1" vertex="1">
          <mxGeometry x="980" y="40" width="60" height="30" as="geometry" />
        </mxCell>
        <mxCell id="LfVI_r5S6F1vF6gZNUYX-124" style="edgeStyle=orthogonalEdgeStyle;rounded=0;orthogonalLoop=1;jettySize=auto;html=1;exitX=0.5;exitY=0;exitDx=0;exitDy=0;entryX=0.75;entryY=1;entryDx=0;entryDy=0;endArrow=none;endFill=0;" parent="1" source="LfVI_r5S6F1vF6gZNUYX-120" target="LfVI_r5S6F1vF6gZNUYX-89" edge="1">
          <mxGeometry relative="1" as="geometry" />
        </mxCell>
        <mxCell id="LfVI_r5S6F1vF6gZNUYX-127" value="&lt;span style=&quot;font-size: 12px; background-color: rgb(27, 29, 30);&quot;&gt;(0,N)&lt;/span&gt;" style="edgeLabel;html=1;align=center;verticalAlign=middle;resizable=0;points=[];" parent="LfVI_r5S6F1vF6gZNUYX-124" vertex="1" connectable="0">
          <mxGeometry x="0.0346" relative="1" as="geometry">
            <mxPoint as="offset" />
          </mxGeometry>
        </mxCell>
        <mxCell id="LfVI_r5S6F1vF6gZNUYX-120" value="posee" style="shape=rhombus;perimeter=rhombusPerimeter;whiteSpace=wrap;html=1;align=center;" parent="1" vertex="1">
          <mxGeometry x="765" y="-20" width="80" height="30" as="geometry" />
        </mxCell>
        <mxCell id="LfVI_r5S6F1vF6gZNUYX-121" style="edgeStyle=orthogonalEdgeStyle;rounded=0;orthogonalLoop=1;jettySize=auto;html=1;exitX=1;exitY=0.5;exitDx=0;exitDy=0;entryX=0.339;entryY=-0.016;entryDx=0;entryDy=0;entryPerimeter=0;endArrow=none;endFill=0;" parent="1" source="LfVI_r5S6F1vF6gZNUYX-120" target="LfVI_r5S6F1vF6gZNUYX-117" edge="1">
          <mxGeometry relative="1" as="geometry" />
        </mxCell>
        <mxCell id="LfVI_r5S6F1vF6gZNUYX-126" value="(0,N)" style="edgeLabel;html=1;align=center;verticalAlign=middle;resizable=0;points=[];" parent="LfVI_r5S6F1vF6gZNUYX-121" vertex="1" connectable="0">
          <mxGeometry x="-0.2287" y="-2" relative="1" as="geometry">
            <mxPoint x="-1" as="offset" />
          </mxGeometry>
        </mxCell>
        <mxCell id="g68JzVaNpoJwYkY7t_2r-1" value="" style="rounded=0;whiteSpace=wrap;html=1;fillColor=none;" parent="1" vertex="1">
          <mxGeometry x="20" y="90" width="410" height="321.57" as="geometry" />
        </mxCell>
      </root>
    </mxGraphModel>
  </diagram>
</mxfile>
